<svg xmlns="http://www.w3.org/2000/svg" xmlns:xlink="http://www.w3.org/1999/xlink" contentStyleType="text/css" data-diagram-type="CLASS" height="842px" preserveAspectRatio="none" style="width:1783px;height:842px;background:#FFFFFF;" version="1.1" viewBox="0 0 1783 842" width="1783px" zoomAndPan="magnify"><defs/><g><!--class User--><g class="entity" data-entity="User" data-source-line="3" data-uid="ent0002" id="entity_User"><rect fill="#FFFFFF" height="223.2656" rx="2.5" ry="2.5" style="stroke:#000000;stroke-width:1;" width="382.6338" x="926.88" y="12"/><ellipse cx="1098.4918" cy="26" fill="#FFFFFF" rx="9" ry="9" style="stroke:#000000;stroke-width:1;"/><path d="M1095.1949,20.3438 L1095.1949,21.7344 L1097.3824,21.7344 L1094.4762,28.8594 L1093.4918,28.8594 L1093.4918,30.25 L1097.5231,30.25 L1097.5231,28.8594 L1096.0074,28.8594 L1096.6637,27.1875 L1100.4918,27.1875 L1101.1637,28.8594 L1099.6637,28.8594 L1099.6637,30.25 L1103.6949,30.25 L1103.6949,28.8594 L1102.7418,28.8594 L1099.2887,20.3438 L1095.1949,20.3438 Z M1099.9449,25.7969 L1097.2418,25.7969 L1098.5856,22.5469 L1099.9449,25.7969 Z " fill="#000000"/><text fill="#000000" font-family="Verdana" font-size="14" font-style="italic" lengthAdjust="spacing" textLength="31.9102" x="1115.9918" y="30.8467">User</text><line style="stroke:#000000;stroke-width:1;" x1="927.88" x2="1308.5138" y1="40" y2="40"/><rect fill="none" height="6" style="stroke:#000000;stroke-width:1;" width="6" x="934.88" y="50.6484"/><text fill="#000000" font-family="Verdana" font-size="14" lengthAdjust="spacing" textLength="56.0684" x="944.88" y="56.9951">id: Long</text><rect fill="none" height="6" style="stroke:#000000;stroke-width:1;" width="6" x="934.88" y="66.9453"/><text fill="#000000" font-family="Verdana" font-size="14" lengthAdjust="spacing" textLength="121.1875" x="944.88" y="73.292">username: String</text><rect fill="none" height="6" style="stroke:#000000;stroke-width:1;" width="6" x="934.88" y="83.2422"/><text fill="#000000" font-family="Verdana" font-size="14" lengthAdjust="spacing" textLength="89.5576" x="944.88" y="89.5889">email: String</text><rect fill="none" height="6" style="stroke:#000000;stroke-width:1;" width="6" x="934.88" y="99.5391"/><text fill="#000000" font-family="Verdana" font-size="14" lengthAdjust="spacing" textLength="117.6602" x="944.88" y="105.8857">password: String</text><rect fill="none" height="6" style="stroke:#000000;stroke-width:1;" width="6" x="934.88" y="115.8359"/><text fill="#000000" font-family="Verdana" font-size="14" lengthAdjust="spacing" textLength="146.0225" x="944.88" y="122.1826">createdAt: DateTime</text><rect fill="none" height="6" style="stroke:#000000;stroke-width:1;" width="6" x="934.88" y="132.1328"/><text fill="#000000" font-family="Verdana" font-size="14" lengthAdjust="spacing" textLength="150.6025" x="944.88" y="138.4795">updatedAt: DateTime</text><line style="stroke:#000000;stroke-width:1;" x1="927.88" x2="1308.5138" y1="145.7813" y2="145.7813"/><ellipse cx="937.88" cy="159.4297" fill="#FFFFFF" rx="3" ry="3" style="stroke:#000000;stroke-width:1;"/><text fill="#000000" font-family="Verdana" font-size="14" lengthAdjust="spacing" textLength="358.6338" x="944.88" y="162.7764">login(username: String, password: String): Boolean</text><ellipse cx="937.88" cy="175.7266" fill="#FFFFFF" rx="3" ry="3" style="stroke:#000000;stroke-width:1;"/><text fill="#000000" font-family="Verdana" font-size="14" lengthAdjust="spacing" textLength="93.9873" x="944.88" y="179.0732">logout(): void</text><ellipse cx="937.88" cy="192.0234" fill="#FFFFFF" rx="3" ry="3" style="stroke:#000000;stroke-width:1;"/><text fill="#000000" font-family="Verdana" font-size="14" lengthAdjust="spacing" textLength="249.1699" x="944.88" y="195.3701">updateProfile(data: UserData): void</text><ellipse cx="937.88" cy="208.3203" fill="#FFFFFF" rx="3" ry="3" style="stroke:#000000;stroke-width:1;"/><text fill="#000000" font-family="Verdana" font-size="14" lengthAdjust="spacing" textLength="171.835" x="944.88" y="211.667">validateEmail(): Boolean</text><ellipse cx="937.88" cy="224.6172" fill="#FFFFFF" rx="3" ry="3" style="stroke:#000000;stroke-width:1;"/><text fill="#000000" font-family="Verdana" font-size="14" font-style="italic" lengthAdjust="spacing" textLength="250.8174" x="944.88" y="227.9639">getPermissions(): List&lt;Permission&gt;</text></g><!--class RegularUser--><g class="entity" data-entity="RegularUser" data-source-line="17" data-uid="ent0003" id="entity_RegularUser"><rect fill="#FFFFFF" height="125.4844" rx="2.5" ry="2.5" style="stroke:#000000;stroke-width:1;" width="274.8174" x="1087.79" y="377.46"/><ellipse cx="1178.331" cy="391.46" fill="#FFFFFF" rx="9" ry="9" style="stroke:#000000;stroke-width:1;"/><path d="M1181.7373,393.4288 C1181.0185,394.1006 1179.7216,395.2725 1177.9716,395.2725 C1175.7529,395.2725 1174.7841,393.335 1174.7841,391.3819 C1174.7841,388.9913 1176.2685,387.7256 1177.9091,387.7256 C1179.9248,387.7256 1180.1435,389.2413 1180.3154,390.335 L1181.7373,390.1475 C1181.6435,389.5694 1181.5654,388.9913 1181.5654,388.0225 C1181.5654,387.3506 1181.6123,386.8038 1181.6435,386.3819 L1180.2373,386.3819 L1180.1279,387.335 C1179.5341,386.8038 1178.8935,386.2569 1177.6748,386.2569 C1175.6279,386.2569 1173.2216,388.085 1173.2216,391.3975 C1173.2216,394.335 1174.9873,396.7256 1177.9873,396.7256 C1180.4248,396.7256 1182.1279,395.1006 1182.7216,394.5225 L1181.7373,393.4288 Z " fill="#000000"/><text fill="#000000" font-family="Verdana" font-size="14" lengthAdjust="spacing" textLength="86.2354" x="1195.831" y="396.3067">RegularUser</text><line style="stroke:#000000;stroke-width:1;" x1="1088.79" x2="1361.6074" y1="405.46" y2="405.46"/><rect fill="none" height="6" style="stroke:#000000;stroke-width:1;" width="6" x="1095.79" y="416.1084"/><text fill="#000000" font-family="Verdana" font-size="14" lengthAdjust="spacing" textLength="144.2383" x="1105.79" y="422.4551">profilePicture: String</text><rect fill="none" height="6" style="stroke:#000000;stroke-width:1;" width="6" x="1095.79" y="432.4053"/><text fill="#000000" font-family="Verdana" font-size="14" lengthAdjust="spacing" textLength="72.29" x="1105.79" y="438.752">bio: String</text><line style="stroke:#000000;stroke-width:1;" x1="1088.79" x2="1361.6074" y1="446.0538" y2="446.0538"/><ellipse cx="1098.79" cy="459.7022" fill="#FFFFFF" rx="3" ry="3" style="stroke:#000000;stroke-width:1;"/><text fill="#000000" font-family="Verdana" font-size="14" lengthAdjust="spacing" textLength="250.8174" x="1105.79" y="463.0489">getPermissions(): List&lt;Permission&gt;</text><ellipse cx="1098.79" cy="475.9991" fill="#FFFFFF" rx="3" ry="3" style="stroke:#000000;stroke-width:1;"/><text fill="#000000" font-family="Verdana" font-size="14" lengthAdjust="spacing" textLength="194.5303" x="1105.79" y="479.3457">followUser(user: User): void</text><ellipse cx="1098.79" cy="492.2959" fill="#FFFFFF" rx="3" ry="3" style="stroke:#000000;stroke-width:1;"/><text fill="#000000" font-family="Verdana" font-size="14" lengthAdjust="spacing" textLength="212.2764" x="1105.79" y="495.6426">unfollowUser(user: User): void</text></g><!--class AdminUser--><g class="entity" data-entity="AdminUser" data-source-line="25" data-uid="ent0004" id="entity_AdminUser"><rect fill="#FFFFFF" height="125.4844" rx="2.5" ry="2.5" style="stroke:#000000;stroke-width:1;" width="315.9834" x="1397.21" y="377.46"/><ellipse cx="1513.0645" cy="391.46" fill="#FFFFFF" rx="9" ry="9" style="stroke:#000000;stroke-width:1;"/><path d="M1516.4707,393.4288 C1515.752,394.1006 1514.4551,395.2725 1512.7051,395.2725 C1510.4864,395.2725 1509.5176,393.335 1509.5176,391.3819 C1509.5176,388.9913 1511.002,387.7256 1512.6426,387.7256 C1514.6582,387.7256 1514.877,389.2413 1515.0489,390.335 L1516.4707,390.1475 C1516.377,389.5694 1516.2989,388.9913 1516.2989,388.0225 C1516.2989,387.3506 1516.3457,386.8038 1516.377,386.3819 L1514.9707,386.3819 L1514.8614,387.335 C1514.2676,386.8038 1513.627,386.2569 1512.4082,386.2569 C1510.3614,386.2569 1507.9551,388.085 1507.9551,391.3975 C1507.9551,394.335 1509.7207,396.7256 1512.7207,396.7256 C1515.1582,396.7256 1516.8614,395.1006 1517.4551,394.5225 L1516.4707,393.4288 Z " fill="#000000"/><text fill="#000000" font-family="Verdana" font-size="14" lengthAdjust="spacing" textLength="76.7744" x="1530.5645" y="396.3067">AdminUser</text><line style="stroke:#000000;stroke-width:1;" x1="1398.21" x2="1712.1934" y1="405.46" y2="405.46"/><rect fill="none" height="6" style="stroke:#000000;stroke-width:1;" width="6" x="1405.21" y="416.1084"/><text fill="#000000" font-family="Verdana" font-size="14" lengthAdjust="spacing" textLength="172.2998" x="1415.21" y="422.4551">adminLevel: AdminLevel</text><line style="stroke:#000000;stroke-width:1;" x1="1398.21" x2="1712.1934" y1="429.7569" y2="429.7569"/><ellipse cx="1408.21" cy="443.4053" fill="#FFFFFF" rx="3" ry="3" style="stroke:#000000;stroke-width:1;"/><text fill="#000000" font-family="Verdana" font-size="14" lengthAdjust="spacing" textLength="250.8174" x="1415.21" y="446.752">getPermissions(): List&lt;Permission&gt;</text><ellipse cx="1408.21" cy="459.7022" fill="#FFFFFF" rx="3" ry="3" style="stroke:#000000;stroke-width:1;"/><text fill="#000000" font-family="Verdana" font-size="14" lengthAdjust="spacing" textLength="291.9834" x="1415.21" y="463.0489">moderateContent(content: Content): void</text><ellipse cx="1408.21" cy="475.9991" fill="#FFFFFF" rx="3" ry="3" style="stroke:#000000;stroke-width:1;"/><text fill="#000000" font-family="Verdana" font-size="14" lengthAdjust="spacing" textLength="179.5801" x="1415.21" y="479.3457">banUser(user: User): void</text><ellipse cx="1408.21" cy="492.2959" fill="#FFFFFF" rx="3" ry="3" style="stroke:#000000;stroke-width:1;"/><text fill="#000000" font-family="Verdana" font-size="14" lengthAdjust="spacing" textLength="192.8076" x="1415.21" y="495.6426">deletePost(post: Post): void</text></g><!--class Post--><g class="entity" data-entity="Post" data-source-line="33" data-uid="ent0005" id="entity_Post"><rect fill="#FFFFFF" height="255.8594" rx="2.5" ry="2.5" style="stroke:#000000;stroke-width:1;" width="283.2734" x="614.56" y="312.27"/><ellipse cx="737.5512" cy="326.27" fill="#FFFFFF" rx="9" ry="9" style="stroke:#000000;stroke-width:1;"/><path d="M740.9575,328.2388 C740.2387,328.9106 738.9418,330.0825 737.1918,330.0825 C734.9731,330.0825 734.0043,328.145 734.0043,326.1919 C734.0043,323.8013 735.4887,322.5356 737.1293,322.5356 C739.145,322.5356 739.3637,324.0513 739.5356,325.145 L740.9575,324.9575 C740.8637,324.3794 740.7856,323.8013 740.7856,322.8325 C740.7856,322.1606 740.8325,321.6138 740.8637,321.1919 L739.4575,321.1919 L739.3481,322.145 C738.7543,321.6138 738.1137,321.0669 736.895,321.0669 C734.8481,321.0669 732.4418,322.895 732.4418,326.2075 C732.4418,329.145 734.2075,331.5356 737.2075,331.5356 C739.645,331.5356 741.3481,329.9106 741.9418,329.3325 L740.9575,328.2388 Z " fill="#000000"/><text fill="#000000" font-family="Verdana" font-size="14" lengthAdjust="spacing" textLength="29.791" x="755.0512" y="331.1167">Post</text><line style="stroke:#000000;stroke-width:1;" x1="615.56" x2="896.8334" y1="340.27" y2="340.27"/><rect fill="none" height="6" style="stroke:#000000;stroke-width:1;" width="6" x="622.56" y="350.9184"/><text fill="#000000" font-family="Verdana" font-size="14" lengthAdjust="spacing" textLength="56.0684" x="632.56" y="357.2651">id: Long</text><rect fill="none" height="6" style="stroke:#000000;stroke-width:1;" width="6" x="622.56" y="367.2153"/><text fill="#000000" font-family="Verdana" font-size="14" lengthAdjust="spacing" textLength="78.3193" x="632.56" y="373.562">title: String</text><rect fill="none" height="6" style="stroke:#000000;stroke-width:1;" width="6" x="622.56" y="383.5122"/><text fill="#000000" font-family="Verdana" font-size="14" lengthAdjust="spacing" textLength="104.5488" x="632.56" y="389.8589">content: String</text><rect fill="none" height="6" style="stroke:#000000;stroke-width:1;" width="6" x="622.56" y="399.8091"/><text fill="#000000" font-family="Verdana" font-size="14" lengthAdjust="spacing" textLength="79.8916" x="632.56" y="406.1557">slug: String</text><rect fill="none" height="6" style="stroke:#000000;stroke-width:1;" width="6" x="622.56" y="416.1059"/><text fill="#000000" font-family="Verdana" font-size="14" lengthAdjust="spacing" textLength="160.4805" x="632.56" y="422.4526">publishedAt: DateTime</text><rect fill="none" height="6" style="stroke:#000000;stroke-width:1;" width="6" x="622.56" y="432.4028"/><text fill="#000000" font-family="Verdana" font-size="14" lengthAdjust="spacing" textLength="146.0225" x="632.56" y="438.7495">createdAt: DateTime</text><rect fill="none" height="6" style="stroke:#000000;stroke-width:1;" width="6" x="622.56" y="448.6997"/><text fill="#000000" font-family="Verdana" font-size="14" lengthAdjust="spacing" textLength="150.6025" x="632.56" y="455.0464">updatedAt: DateTime</text><rect fill="none" height="6" style="stroke:#000000;stroke-width:1;" width="6" x="622.56" y="464.9966"/><text fill="#000000" font-family="Verdana" font-size="14" lengthAdjust="spacing" textLength="126.5879" x="632.56" y="471.3432">status: PostStatus</text><line style="stroke:#000000;stroke-width:1;" x1="615.56" x2="896.8334" y1="478.645" y2="478.645"/><ellipse cx="625.56" cy="492.2934" fill="#FFFFFF" rx="3" ry="3" style="stroke:#000000;stroke-width:1;"/><text fill="#000000" font-family="Verdana" font-size="14" lengthAdjust="spacing" textLength="100.3105" x="632.56" y="495.6401">publish(): void</text><ellipse cx="625.56" cy="508.5903" fill="#FFFFFF" rx="3" ry="3" style="stroke:#000000;stroke-width:1;"/><text fill="#000000" font-family="Verdana" font-size="14" lengthAdjust="spacing" textLength="118.0566" x="632.56" y="511.937">unpublish(): void</text><ellipse cx="625.56" cy="524.8872" fill="#FFFFFF" rx="3" ry="3" style="stroke:#000000;stroke-width:1;"/><text fill="#000000" font-family="Verdana" font-size="14" lengthAdjust="spacing" textLength="259.2734" x="632.56" y="528.2339">updateContent(content: String): void</text><ellipse cx="625.56" cy="541.1841" fill="#FFFFFF" rx="3" ry="3" style="stroke:#000000;stroke-width:1;"/><text fill="#000000" font-family="Verdana" font-size="14" lengthAdjust="spacing" textLength="160.2275" x="632.56" y="544.5307">addTag(tag: Tag): void</text><ellipse cx="625.56" cy="557.4809" fill="#FFFFFF" rx="3" ry="3" style="stroke:#000000;stroke-width:1;"/><text fill="#000000" font-family="Verdana" font-size="14" lengthAdjust="spacing" textLength="187.3457" x="632.56" y="560.8276">removeTag(tag: Tag): void</text></g><!--class Comment--><g class="entity" data-entity="Comment" data-source-line="49" data-uid="ent0006" id="entity_Comment"><rect fill="#FFFFFF" height="190.6719" rx="2.5" ry="2.5" style="stroke:#000000;stroke-width:1;" width="252.6621" x="930.87" y="645.13"/><ellipse cx="1019.1552" cy="659.13" fill="#FFFFFF" rx="9" ry="9" style="stroke:#000000;stroke-width:1;"/><path d="M1022.5614,661.0988 C1021.8427,661.7706 1020.5458,662.9425 1018.7958,662.9425 C1016.577,662.9425 1015.6083,661.005 1015.6083,659.0519 C1015.6083,656.6613 1017.0927,655.3956 1018.7333,655.3956 C1020.7489,655.3956 1020.9677,656.9113 1021.1395,658.005 L1022.5614,657.8175 C1022.4677,657.2394 1022.3895,656.6613 1022.3895,655.6925 C1022.3895,655.0206 1022.4364,654.4738 1022.4677,654.0519 L1021.0614,654.0519 L1020.952,655.005 C1020.3583,654.4738 1019.7177,653.9269 1018.4989,653.9269 C1016.452,653.9269 1014.0458,655.755 1014.0458,659.0675 C1014.0458,662.005 1015.8114,664.3956 1018.8114,664.3956 C1021.2489,664.3956 1022.952,662.7706 1023.5458,662.1925 L1022.5614,661.0988 Z " fill="#000000"/><text fill="#000000" font-family="Verdana" font-size="14" lengthAdjust="spacing" textLength="68.5918" x="1036.6552" y="663.9767">Comment</text><line style="stroke:#000000;stroke-width:1;" x1="931.87" x2="1182.5321" y1="673.13" y2="673.13"/><rect fill="none" height="6" style="stroke:#000000;stroke-width:1;" width="6" x="938.87" y="683.7784"/><text fill="#000000" font-family="Verdana" font-size="14" lengthAdjust="spacing" textLength="56.0684" x="948.87" y="690.1251">id: Long</text><rect fill="none" height="6" style="stroke:#000000;stroke-width:1;" width="6" x="938.87" y="700.0753"/><text fill="#000000" font-family="Verdana" font-size="14" lengthAdjust="spacing" textLength="104.5488" x="948.87" y="706.422">content: String</text><rect fill="none" height="6" style="stroke:#000000;stroke-width:1;" width="6" x="938.87" y="716.3722"/><text fill="#000000" font-family="Verdana" font-size="14" lengthAdjust="spacing" textLength="146.0225" x="948.87" y="722.7189">createdAt: DateTime</text><rect fill="none" height="6" style="stroke:#000000;stroke-width:1;" width="6" x="938.87" y="732.6691"/><text fill="#000000" font-family="Verdana" font-size="14" lengthAdjust="spacing" textLength="150.6025" x="948.87" y="739.0157">updatedAt: DateTime</text><rect fill="none" height="6" style="stroke:#000000;stroke-width:1;" width="6" x="938.87" y="748.9659"/><text fill="#000000" font-family="Verdana" font-size="14" lengthAdjust="spacing" textLength="144.498" x="948.87" y="755.3126">isApproved: Boolean</text><line style="stroke:#000000;stroke-width:1;" x1="931.87" x2="1182.5321" y1="762.6144" y2="762.6144"/><ellipse cx="941.87" cy="776.2628" fill="#FFFFFF" rx="3" ry="3" style="stroke:#000000;stroke-width:1;"/><text fill="#000000" font-family="Verdana" font-size="14" lengthAdjust="spacing" textLength="107.29" x="948.87" y="779.6095">approve(): void</text><ellipse cx="941.87" cy="792.5597" fill="#FFFFFF" rx="3" ry="3" style="stroke:#000000;stroke-width:1;"/><text fill="#000000" font-family="Verdana" font-size="14" lengthAdjust="spacing" textLength="89.7764" x="948.87" y="795.9064">reject(): void</text><ellipse cx="941.87" cy="808.8566" fill="#FFFFFF" rx="3" ry="3" style="stroke:#000000;stroke-width:1;"/><text fill="#000000" font-family="Verdana" font-size="14" lengthAdjust="spacing" textLength="181.1455" x="948.87" y="812.2032">edit(content: String): void</text><ellipse cx="941.87" cy="825.1534" fill="#FFFFFF" rx="3" ry="3" style="stroke:#000000;stroke-width:1;"/><text fill="#000000" font-family="Verdana" font-size="14" lengthAdjust="spacing" textLength="228.6621" x="948.87" y="828.5001">reply(content: String): Comment</text></g><!--class Tag--><g class="entity" data-entity="Tag" data-source-line="61" data-uid="ent0007" id="entity_Tag"><rect fill="#FFFFFF" height="125.4844" rx="2.5" ry="2.5" style="stroke:#000000;stroke-width:1;" width="188.8076" x="218.8" y="677.72"/><ellipse cx="296.445" cy="691.72" fill="#FFFFFF" rx="9" ry="9" style="stroke:#000000;stroke-width:1;"/><path d="M299.8513,693.6887 C299.1325,694.3606 297.8356,695.5325 296.0856,695.5325 C293.8669,695.5325 292.8981,693.595 292.8981,691.6419 C292.8981,689.2512 294.3825,687.9856 296.0231,687.9856 C298.0388,687.9856 298.2575,689.5012 298.4294,690.595 L299.8513,690.4075 C299.7575,689.8294 299.6794,689.2512 299.6794,688.2825 C299.6794,687.6106 299.7263,687.0637 299.7575,686.6419 L298.3513,686.6419 L298.2419,687.595 C297.6481,687.0637 297.0075,686.5169 295.7888,686.5169 C293.7419,686.5169 291.3356,688.345 291.3356,691.6575 C291.3356,694.595 293.1013,696.9856 296.1013,696.9856 C298.5388,696.9856 300.2419,695.3606 300.8356,694.7825 L299.8513,693.6887 Z " fill="#000000"/><text fill="#000000" font-family="Verdana" font-size="14" lengthAdjust="spacing" textLength="26.0176" x="313.945" y="696.5667">Tag</text><line style="stroke:#000000;stroke-width:1;" x1="219.8" x2="406.6076" y1="705.72" y2="705.72"/><rect fill="none" height="6" style="stroke:#000000;stroke-width:1;" width="6" x="226.8" y="716.3684"/><text fill="#000000" font-family="Verdana" font-size="14" lengthAdjust="spacing" textLength="56.0684" x="236.8" y="722.7151">id: Long</text><rect fill="none" height="6" style="stroke:#000000;stroke-width:1;" width="6" x="226.8" y="732.6653"/><text fill="#000000" font-family="Verdana" font-size="14" lengthAdjust="spacing" textLength="90.6514" x="236.8" y="739.012">name: String</text><rect fill="none" height="6" style="stroke:#000000;stroke-width:1;" width="6" x="226.8" y="748.9622"/><text fill="#000000" font-family="Verdana" font-size="14" lengthAdjust="spacing" textLength="79.8916" x="236.8" y="755.3089">slug: String</text><rect fill="none" height="6" style="stroke:#000000;stroke-width:1;" width="6" x="226.8" y="765.2591"/><text fill="#000000" font-family="Verdana" font-size="14" lengthAdjust="spacing" textLength="128.7891" x="236.8" y="771.6057">description: String</text><line style="stroke:#000000;stroke-width:1;" x1="219.8" x2="406.6076" y1="778.9075" y2="778.9075"/><ellipse cx="229.8" cy="792.5559" fill="#FFFFFF" rx="3" ry="3" style="stroke:#000000;stroke-width:1;"/><text fill="#000000" font-family="Verdana" font-size="14" lengthAdjust="spacing" textLength="164.8076" x="236.8" y="795.9026">getPostCount(): Integer</text></g><!--class Category--><g class="entity" data-entity="Category" data-source-line="69" data-uid="ent0008" id="entity_Category"><rect fill="#FFFFFF" height="158.0781" rx="2.5" ry="2.5" style="stroke:#000000;stroke-width:1;" width="278.9941" x="616.7" y="661.42"/><ellipse cx="720.472" cy="675.42" fill="#FFFFFF" rx="9" ry="9" style="stroke:#000000;stroke-width:1;"/><path d="M723.8782,677.3888 C723.1595,678.0606 721.8626,679.2325 720.1126,679.2325 C717.8938,679.2325 716.9251,677.295 716.9251,675.3419 C716.9251,672.9513 718.4095,671.6856 720.0501,671.6856 C722.0657,671.6856 722.2845,673.2013 722.4563,674.295 L723.8782,674.1075 C723.7845,673.5294 723.7063,672.9513 723.7063,671.9825 C723.7063,671.3106 723.7532,670.7638 723.7845,670.3419 L722.3782,670.3419 L722.2688,671.295 C721.6751,670.7638 721.0345,670.2169 719.8157,670.2169 C717.7688,670.2169 715.3626,672.045 715.3626,675.3575 C715.3626,678.295 717.1282,680.6856 720.1282,680.6856 C722.5657,680.6856 724.2688,679.0606 724.8626,678.4825 L723.8782,677.3888 Z " fill="#000000"/><text fill="#000000" font-family="Verdana" font-size="14" lengthAdjust="spacing" textLength="63.9502" x="737.972" y="680.2667">Category</text><line style="stroke:#000000;stroke-width:1;" x1="617.7" x2="894.6941" y1="689.42" y2="689.42"/><rect fill="none" height="6" style="stroke:#000000;stroke-width:1;" width="6" x="624.7" y="700.0684"/><text fill="#000000" font-family="Verdana" font-size="14" lengthAdjust="spacing" textLength="56.0684" x="634.7" y="706.4151">id: Long</text><rect fill="none" height="6" style="stroke:#000000;stroke-width:1;" width="6" x="624.7" y="716.3653"/><text fill="#000000" font-family="Verdana" font-size="14" lengthAdjust="spacing" textLength="90.6514" x="634.7" y="722.712">name: String</text><rect fill="none" height="6" style="stroke:#000000;stroke-width:1;" width="6" x="624.7" y="732.6622"/><text fill="#000000" font-family="Verdana" font-size="14" lengthAdjust="spacing" textLength="79.8916" x="634.7" y="739.0089">slug: String</text><rect fill="none" height="6" style="stroke:#000000;stroke-width:1;" width="6" x="624.7" y="748.9591"/><text fill="#000000" font-family="Verdana" font-size="14" lengthAdjust="spacing" textLength="128.7891" x="634.7" y="755.3057">description: String</text><rect fill="none" height="6" style="stroke:#000000;stroke-width:1;" width="6" x="624.7" y="765.2559"/><text fill="#000000" font-family="Verdana" font-size="14" lengthAdjust="spacing" textLength="183.2646" x="634.7" y="771.6026">parentCategory: Category</text><line style="stroke:#000000;stroke-width:1;" x1="617.7" x2="894.6941" y1="778.9044" y2="778.9044"/><ellipse cx="627.7" cy="792.5528" fill="#FFFFFF" rx="3" ry="3" style="stroke:#000000;stroke-width:1;"/><text fill="#000000" font-family="Verdana" font-size="14" lengthAdjust="spacing" textLength="164.8076" x="634.7" y="795.8995">getPostCount(): Integer</text><ellipse cx="627.7" cy="808.8497" fill="#FFFFFF" rx="3" ry="3" style="stroke:#000000;stroke-width:1;"/><text fill="#000000" font-family="Verdana" font-size="14" lengthAdjust="spacing" textLength="254.9941" x="634.7" y="812.1964">getSubcategories(): List&lt;Category&gt;</text></g><!--class PostStatus--><g class="entity" data-entity="PostStatus" data-source-line="79" data-uid="ent0009" id="entity_PostStatus"><rect fill="#FFFFFF" height="92.8906" rx="2.5" ry="2.5" style="stroke:#000000;stroke-width:1;" width="102.4023" x="1527" y="77.19"/><ellipse cx="1540" cy="91.19" fill="#FFFFFF" rx="9" ry="9" style="stroke:#000000;stroke-width:1;"/><path d="M1535.7656,86.2837 L1535.7656,87.6744 L1537.1719,87.6744 L1537.1719,94.7994 L1535.7656,94.7994 L1535.7656,96.19 L1544.4063,96.19 L1544.4063,92.5025 L1542.9844,92.5025 L1542.9063,94.7994 L1538.6563,94.7994 L1538.6563,91.6744 L1540.6563,91.6744 L1540.6563,92.8775 L1542.0781,92.8775 L1542.0781,89.0494 L1540.6563,89.0494 L1540.6563,90.2681 L1538.6563,90.2681 L1538.6563,87.6744 L1542.75,87.6744 L1542.9063,89.9556 L1544.3125,89.9556 L1544.2344,86.2837 L1535.7656,86.2837 Z " fill="#000000"/><text fill="#000000" font-family="Verdana" font-size="14" lengthAdjust="spacing" textLength="74.4023" x="1552" y="96.0367">PostStatus</text><line style="stroke:#000000;stroke-width:1;" x1="1528" x2="1628.4023" y1="105.19" y2="105.19"/><text fill="#000000" font-family="Verdana" font-size="14" lengthAdjust="spacing" textLength="46.6895" x="1533" y="122.1851">DRAFT</text><text fill="#000000" font-family="Verdana" font-size="14" lengthAdjust="spacing" textLength="79.2627" x="1533" y="138.482">PUBLISHED</text><text fill="#000000" font-family="Verdana" font-size="14" lengthAdjust="spacing" textLength="72.9395" x="1533" y="154.7789">ARCHIVED</text><line style="stroke:#000000;stroke-width:1;" x1="1528" x2="1628.4023" y1="162.0806" y2="162.0806"/></g><!--class AdminLevel--><g class="entity" data-entity="AdminLevel" data-source-line="85" data-uid="ent0010" id="entity_AdminLevel"><rect fill="#FFFFFF" height="92.8906" rx="2.5" ry="2.5" style="stroke:#000000;stroke-width:1;" width="112.1875" x="1664.11" y="77.19"/><ellipse cx="1678.0649" cy="91.19" fill="#FFFFFF" rx="9" ry="9" style="stroke:#000000;stroke-width:1;"/><path d="M1673.8306,86.2837 L1673.8306,87.6744 L1675.2368,87.6744 L1675.2368,94.7994 L1673.8306,94.7994 L1673.8306,96.19 L1682.4712,96.19 L1682.4712,92.5025 L1681.0493,92.5025 L1680.9712,94.7994 L1676.7212,94.7994 L1676.7212,91.6744 L1678.7212,91.6744 L1678.7212,92.8775 L1680.1431,92.8775 L1680.1431,89.0494 L1678.7212,89.0494 L1678.7212,90.2681 L1676.7212,90.2681 L1676.7212,87.6744 L1680.8149,87.6744 L1680.9712,89.9556 L1682.3774,89.9556 L1682.2993,86.2837 L1673.8306,86.2837 Z " fill="#000000"/><text fill="#000000" font-family="Verdana" font-size="14" lengthAdjust="spacing" textLength="82.0654" x="1690.2771" y="96.0367">AdminLevel</text><line style="stroke:#000000;stroke-width:1;" x1="1665.11" x2="1775.2975" y1="105.19" y2="105.19"/><text fill="#000000" font-family="Verdana" font-size="14" lengthAdjust="spacing" textLength="91.3281" x="1670.11" y="122.1851">MODERATOR</text><text fill="#000000" font-family="Verdana" font-size="14" lengthAdjust="spacing" textLength="47.0381" x="1670.11" y="138.482">ADMIN</text><text fill="#000000" font-family="Verdana" font-size="14" lengthAdjust="spacing" textLength="100.1875" x="1670.11" y="154.7789">SUPER_ADMIN</text><line style="stroke:#000000;stroke-width:1;" x1="1665.11" x2="1775.2975" y1="162.0806" y2="162.0806"/></g><g class="entity" data-entity="GMN19" data-source-line="104" data-uid="ent0020" id="entity_GMN19"><path d="M1344.65,103.5 L1344.65,119.64 L1309.8,123.64 L1344.65,127.64 L1344.65,143.7656 A0,0 0 0 0 1344.65,143.7656 L1491.7462,143.7656 A0,0 0 0 0 1491.7462,143.7656 L1491.7462,113.5 L1481.7462,103.5 L1344.65,103.5 A0,0 0 0 0 1344.65,103.5" fill="#FFFFFF" style="stroke:#000000;stroke-width:1;"/><path d="M1481.7462,103.5 L1481.7462,113.5 L1491.7462,113.5 L1481.7462,103.5" fill="#FFFFFF" style="stroke:#000000;stroke-width:1;"/><text fill="#000000" font-family="Verdana" font-size="13" lengthAdjust="spacing" textLength="126.0962" x="1350.65" y="120.5669">Abstract base class</text><text fill="#000000" font-family="Verdana" font-size="13" lengthAdjust="spacing" textLength="109.6304" x="1350.65" y="135.6997">for all user types</text></g><g class="entity" data-entity="GMN22" data-source-line="105" data-uid="ent0023" id="entity_GMN22"><path d="M11,712.76 L11,768.1584 L183.3979,768.1584 L183.3979,722.76 L173.3979,712.76 L11,712.76" fill="#FFFFFF" style="stroke:#000000;stroke-width:1;"/><path d="M173.3979,712.76 L173.3979,722.76 L183.3979,722.76 L173.3979,712.76" fill="#FFFFFF" style="stroke:#000000;stroke-width:1;"/><text fill="#000000" font-family="Verdana" font-size="13" lengthAdjust="spacing" textLength="97.9507" x="17" y="729.8269">Posts can have</text><text fill="#000000" font-family="Verdana" font-size="13" lengthAdjust="spacing" textLength="113.896" x="17" y="744.9597">multiple tags and</text><text fill="#000000" font-family="Verdana" font-size="13" lengthAdjust="spacing" textLength="151.3979" x="17" y="760.0925">belong to one category</text></g><g class="entity" data-entity="GMN25" data-source-line="106" data-uid="ent0026" id="entity_GMN25"><path d="M442.53,720.33 L442.53,760.5956 L581.863,760.5956 L581.863,730.33 L571.863,720.33 L442.53,720.33" fill="#FFFFFF" style="stroke:#000000;stroke-width:1;"/><path d="M571.863,720.33 L571.863,730.33 L581.863,730.33 L571.863,720.33" fill="#FFFFFF" style="stroke:#000000;stroke-width:1;"/><text fill="#000000" font-family="Verdana" font-size="13" lengthAdjust="spacing" textLength="118.333" x="448.53" y="737.3969">Comments can be</text><text fill="#000000" font-family="Verdana" font-size="13" lengthAdjust="spacing" textLength="102.2227" x="448.53" y="752.5297">nested (replies)</text></g><!--reverse link User to RegularUser--><g class="link" data-entity-1="User" data-entity-2="RegularUser" data-source-line="92" data-uid="lnk11" id="link_User_RegularUser"><path codeLine="92" d="M1161.7184,252.5805 C1177.9084,300.1605 1190.41,336.92 1204.13,377.27" fill="none" id="User-backto-RegularUser" style="stroke:#000000;stroke-width:1;"/><polygon fill="none" points="1155.92,235.54,1156.0382,254.5133,1167.3985,250.6477,1155.92,235.54" style="stroke:#000000;stroke-width:1;"/></g><!--reverse link User to AdminUser--><g class="link" data-entity-1="User" data-entity-2="AdminUser" data-source-line="93" data-uid="lnk12" id="link_User_AdminUser"><path codeLine="93" d="M1288.102,246.0836 C1323.232,271.2536 1345.7,287.41 1380.2,312.27 C1409.43,333.34 1441.35,356.45 1469.82,377.12" fill="none" id="User-backto-AdminUser" style="stroke:#000000;stroke-width:1;"/><polygon fill="none" points="1273.47,235.6,1284.6075,250.9609,1291.5965,241.2062,1273.47,235.6" style="stroke:#000000;stroke-width:1;"/></g><!--link User to Post--><g class="link" data-entity-1="User" data-entity-2="Post" data-source-line="96" data-uid="lnk13" id="link_User_Post"><path codeLine="96" d="M964.4556,240.658 C952.3056,250.508 946.56,255.44 935.2,265.27 C918.16,280.01 913.7752,283.6222 896.7052,299.6422" fill="none" id="User-Post" style="stroke:#000000;stroke-width:1;"/><line style="stroke:#000000;stroke-width:1;" x1="965.0438" x2="970.0818" y1="235.0318" y2="241.2462"/><line style="stroke:#000000;stroke-width:1;" x1="962.7134" x2="967.7514" y1="236.9211" y2="243.1354"/><line style="stroke:#000000;stroke-width:1;" x1="964.4556" x2="970.67" y1="240.658" y2="235.62"/><line style="stroke:#000000;stroke-width:1;" x1="889.4134" x2="887.6859" y1="306.4854" y2="316.3351"/><line style="stroke:#000000;stroke-width:1;" x1="889.4134" x2="879.4741" y1="306.4854" y2="307.5849"/><line style="stroke:#000000;stroke-width:1;" x1="889.4134" x2="883.58" y1="306.4854" y2="311.96"/><ellipse cx="893.7885" cy="302.3795" fill="none" rx="4" ry="4" style="stroke:#000000;stroke-width:1;"/><text fill="#000000" font-family="Verdana" font-size="13" lengthAdjust="spacing" textLength="49.6133" x="936.2" y="278.3369">authors</text></g><!--link User to Comment--><g class="link" data-entity-1="User" data-entity-2="Comment" data-source-line="97" data-uid="lnk14" id="link_User_Comment"><path codeLine="97" d="M1052.4902,242.8813 C1041.5002,267.4213 1035,286.5 1029.2,312.27 C1003.89,424.66 1016.2086,539.8635 1032.4586,627.2335" fill="none" id="User-Comment" style="stroke:#000000;stroke-width:1;"/><line style="stroke:#000000;stroke-width:1;" x1="1050.4745" x2="1057.7757" y1="237.5957" y2="240.8655"/><line style="stroke:#000000;stroke-width:1;" x1="1049.2483" x2="1056.5496" y1="240.3337" y2="243.6035"/><line style="stroke:#000000;stroke-width:1;" x1="1052.4902" x2="1055.76" y1="242.8813" y2="235.58"/><line style="stroke:#000000;stroke-width:1;" x1="1034.2872" x2="1041.6488" y1="637.0649" y2="643.8329"/><line style="stroke:#000000;stroke-width:1;" x1="1034.2872" x2="1029.8512" y1="637.0649" y2="646.0271"/><line style="stroke:#000000;stroke-width:1;" x1="1034.2872" x2="1035.75" y1="637.0649" y2="644.93"/><ellipse cx="1033.19" cy="631.166" fill="none" rx="4" ry="4" style="stroke:#000000;stroke-width:1;"/><text fill="#000000" font-family="Verdana" font-size="13" lengthAdjust="spacing" textLength="39.457" x="1030.2" y="444.7669">writes</text></g><!--link Post to Comment--><g class="link" data-entity-1="Post" data-entity-2="Comment" data-source-line="98" data-uid="lnk15" id="link_Post_Comment"><path codeLine="98" d="M890.4031,574.1905 C916.2931,599.8405 924.5948,608.0596 949.1048,632.3496" fill="none" id="Post-Comment" style="stroke:#000000;stroke-width:1;"/><line style="stroke:#000000;stroke-width:1;" x1="884.7463" x2="890.3768" y1="574.2168" y2="568.5337"/><line style="stroke:#000000;stroke-width:1;" x1="886.8775" x2="892.508" y1="576.3282" y2="570.6451"/><line style="stroke:#000000;stroke-width:1;" x1="890.4031" x2="884.72" y1="574.1905" y2="568.56"/><line style="stroke:#000000;stroke-width:1;" x1="956.2077" x2="966.1135" y1="639.3887" y2="640.7583"/><line style="stroke:#000000;stroke-width:1;" x1="956.2077" x2="957.6665" y1="639.3887" y2="649.2817"/><line style="stroke:#000000;stroke-width:1;" x1="956.2077" x2="961.89" y1="639.3887" y2="645.02"/><ellipse cx="951.946" cy="635.1652" fill="none" rx="4" ry="4" style="stroke:#000000;stroke-width:1;"/><text fill="#000000" font-family="Verdana" font-size="13" lengthAdjust="spacing" textLength="22.9785" x="926.2" y="611.1969">has</text></g><!--link Post to Category--><g class="link" data-entity-1="Post" data-entity-2="Category" data-source-line="99" data-uid="lnk16" id="link_Post_Category"><path codeLine="99" d="M756.2,586.56 C756.2,618.06 756.2,624.9 756.2,653.27" fill="none" id="Post-Category" style="stroke:#000000;stroke-width:1;"/><line style="stroke:#000000;stroke-width:1;" x1="756.2" x2="750.2" y1="576.56" y2="568.56"/><line style="stroke:#000000;stroke-width:1;" x1="756.2" x2="762.2" y1="576.56" y2="568.56"/><line style="stroke:#000000;stroke-width:1;" x1="756.2" x2="756.2" y1="576.56" y2="568.56"/><ellipse cx="756.2" cy="582.56" fill="none" rx="4" ry="4" style="stroke:#000000;stroke-width:1;"/><line style="stroke:#000000;stroke-width:1;" x1="760.2" x2="752.2" y1="657.27" y2="657.27"/><line style="stroke:#000000;stroke-width:1;" x1="760.2" x2="752.2" y1="654.27" y2="654.27"/><line style="stroke:#000000;stroke-width:1;" x1="756.2" x2="756.2" y1="653.27" y2="661.27"/><text fill="#000000" font-family="Verdana" font-size="13" lengthAdjust="spacing" textLength="68.2627" x="757.2" y="611.1969">belongs to</text></g><!--link Post to Tag--><g class="link" data-entity-1="Post" data-entity-2="Tag" data-source-line="100" data-uid="lnk17" id="link_Post_Tag"><path codeLine="100" d="M598.8749,531.5638 C539.1749,567.2938 485.23,601.72 425.2,645.13 C411.4,655.11 411.0519,654.8959 397.5319,666.0159" fill="none" id="Post-Tag" style="stroke:#000000;stroke-width:1;"/><line style="stroke:#000000;stroke-width:1;" x1="607.4555" x2="611.2387" y1="526.4284" y2="517.1716"/><line style="stroke:#000000;stroke-width:1;" x1="607.4555" x2="617.4013" y1="526.4284" y2="527.4684"/><line style="stroke:#000000;stroke-width:1;" x1="607.4555" x2="614.32" y1="526.4284" y2="522.32"/><ellipse cx="602.3071" cy="529.5096" fill="none" rx="4" ry="4" style="stroke:#000000;stroke-width:1;"/><line style="stroke:#000000;stroke-width:1;" x1="389.8086" x2="387.4414" y1="672.3682" y2="682.084"/><line style="stroke:#000000;stroke-width:1;" x1="389.8086" x2="379.8186" y1="672.3682" y2="672.816"/><line style="stroke:#000000;stroke-width:1;" x1="389.8086" x2="383.63" y1="672.3682" y2="677.45"/><ellipse cx="394.4426" cy="668.5568" fill="none" rx="4" ry="4" style="stroke:#000000;stroke-width:1;"/><text fill="#000000" font-family="Verdana" font-size="13" lengthAdjust="spacing" textLength="77.5303" x="488.2" y="611.1969">tagged with</text></g><!--link Comment to Comment--><g class="link" data-entity-1="Comment" data-entity-2="Comment" data-source-line="101" data-uid="lnk18" id="link_Comment_Comment"><path codeLine="101" d="M1201.7739,720.2057 C1222.2539,723.5557 1218.53,728.37 1218.53,740.46 C1218.53,752.55 1219.2933,757.8586 1198.8133,761.2086" fill="none" id="Comment-Comment" style="stroke:#000000;stroke-width:1;"/><line style="stroke:#000000;stroke-width:1;" x1="1191.9051" x2="1183.0414" y1="718.5914" y2="723.2213"/><line style="stroke:#000000;stroke-width:1;" x1="1191.9051" x2="1184.9786" y1="718.5914" y2="711.3787"/><line style="stroke:#000000;stroke-width:1;" x1="1191.9051" x2="1184.01" y1="718.5914" y2="717.3"/><ellipse cx="1197.8264" cy="719.56" fill="none" rx="4" ry="4" style="stroke:#000000;stroke-width:1;"/><line style="stroke:#000000;stroke-width:1;" x1="1194.8657" x2="1184.01" y1="761.8543" y2="763.63"/><ellipse cx="1194.8657" cy="761.8543" fill="none" rx="4" ry="4" style="stroke:#000000;stroke-width:1;"/><line style="stroke:#000000;stroke-width:1;" x1="1188.6033" x2="1187.3118" y1="766.9318" y2="759.0367"/><text fill="#000000" font-family="Verdana" font-size="13" lengthAdjust="spacing" textLength="60.7725" x="1224.53" y="745.0269">replies to</text></g><!--link Post to GMN22--><g class="link" data-entity-1="Post" data-entity-2="GMN22" data-source-line="105" data-uid="lnk24" id="link_Post_GMN22"><path d="M614.07,477.03 C497.75,510.11 331.71,566.11 201.2,645.13 C170.75,663.56 141.21,691.65 121.44,712.39" fill="none" id="Post-GMN22" style="stroke:#000000;stroke-width:1;stroke-dasharray:7.0,7.0;"/></g><!--link GMN25 to Comment--><g class="link" data-entity-1="GMN25" data-entity-2="Comment" data-source-line="106" data-uid="lnk27" id="link_GMN25_Comment"><path d="M520.9,720.05 C535.47,688.83 568.08,630.35 616.7,606.63 C728.14,552.25 779.05,564.58 895.7,606.63 C919.68,615.27 942.62,629.2 963.3,644.87" fill="none" id="GMN25-Comment" style="stroke:#000000;stroke-width:1;stroke-dasharray:7.0,7.0;"/></g><!--SRC=[hLLVQzim47_tfz3wCeykNy2KWPjaD92s8KdtL1YoTR4rPCb8Sa9f-jrtakBOJhBImbxiy_tz_KwdynTRGWMa5fJBAAAPiPhcbkI26aEU36Zo6X4ouYmXSoKB9pUebRI2XAoiva475UMYhwWnVgSqw-jo3TG2Isr29YYiUGK-NyqkgA-5AhYCJujz9wUPloNaLYa1L1wYL6DZL6uLPquJqY-qsd01CSeqySIm5ksvRQdWpd7gcCI3fAzjMzx8TG5s0RhYnd0bZVERSsDlEjsFw2sAGlkMK3I2wgwBTG2nuBbjzA1_6LUzpuzKGQ-D4aBjN7hVfa2hpro-wt74cRAAomubTPzps08UQ7gKFmwhKWmqTdAif0Lfupoy4t9Gz11cLFuRFWC1U73AsBZ6HqASU0RUASzdr78h1Wq-WkXKHZJ5O6IRJ71JdW_ef-PsP2orZGbeLrvsP0x91uCfBobzqhFM7KUzzQEChMaHMueKKEXPD5Hg2vUCnvwDLLLXslEsNUZIvyXpazOuvLjWWrj9Wp8UmFm3-U2Y0kFlCTPGYvSBzWEPZXqoFcTskh1E3v-1oJMlBGxnwKN4SnohHdgiCwnUWEwr4iaNIh_yhuguE3MoQTCcnmBleGccLPFbmPb3TpdRUB-NG3PLRp0zwCao_Rd6z-BfTZvRtKqdAAVByTti5ufjJBS7VCpzusIwJDUFI-SxkPyzu7lrj9WkVuSl3FkAw4hGt5AP0z4Wg6DgIbwRoE-Qc_rer5-HFUrn8RaqgJ4gvo4w-EpHHxs6cv-GAzhOKcbpDJ2s8uxs7O80D7l_StD9MzkR6ets- -v8qPY1mECqnAgU3yQx6KCpth026DbnMrv5RKxlik-NSAEBP-Ap8AC7XNWYYK-YUL5QeZRXLulxjlq1PzH0-0i_unRNX0f1t9OazgLkWpDbhQfSzA4LxcL8JYKfwHQUPTK8osi1174QGYLxbe4G8Y5AOe5sk7m-0HkFfKD-a4BE33DAC7ZhINnWz2tw2m00]--></g></svg>