<svg xmlns="http://www.w3.org/2000/svg" xmlns:xlink="http://www.w3.org/1999/xlink" version="1.1" class="marks" width="744" height="464" viewBox="0 0 744 464"><rect width="744" height="464" fill="white"/><g fill="none" stroke-miterlimit="10" transform="translate(75,27)"><g class="mark-group role-frame root" role="graphics-object" aria-roledescription="group mark container"><g transform="translate(0,0)"><path class="background" aria-hidden="true" d="M0.5,0.5h600v400h-600Z" stroke="#ddd"/><g><g class="mark-group role-axis" aria-hidden="true"><g transform="translate(0.5,0.5)"><path class="background" aria-hidden="true" d="M0,0h0v0h0Z" pointer-events="none"/><g><g class="mark-rule role-axis-grid" pointer-events="none"><line transform="translate(0,400)" x2="600" y2="0" stroke="#ddd" stroke-width="1" opacity="1"/><line transform="translate(0,360)" x2="600" y2="0" stroke="#ddd" stroke-width="1" opacity="1"/><line transform="translate(0,320)" x2="600" y2="0" stroke="#ddd" stroke-width="1" opacity="1"/><line transform="translate(0,280)" x2="600" y2="0" stroke="#ddd" stroke-width="1" opacity="1"/><line transform="translate(0,240)" x2="600" y2="0" stroke="#ddd" stroke-width="1" opacity="1"/><line transform="translate(0,200)" x2="600" y2="0" stroke="#ddd" stroke-width="1" opacity="1"/><line transform="translate(0,160)" x2="600" y2="0" stroke="#ddd" stroke-width="1" opacity="1"/><line transform="translate(0,120)" x2="600" y2="0" stroke="#ddd" stroke-width="1" opacity="1"/><line transform="translate(0,80)" x2="600" y2="0" stroke="#ddd" stroke-width="1" opacity="1"/><line transform="translate(0,40)" x2="600" y2="0" stroke="#ddd" stroke-width="1" opacity="1"/><line transform="translate(0,0)" x2="600" y2="0" stroke="#ddd" stroke-width="1" opacity="1"/></g></g><path class="foreground" aria-hidden="true" d="" pointer-events="none" display="none"/></g></g><g class="mark-group role-axis" role="graphics-symbol" aria-roledescription="axis" aria-label="X-axis titled 'Month' for a discrete scale with 12 values: Apr, Aug, Dec, Feb, Jan, ending with Sep"><g transform="translate(0.5,400.5)"><path class="background" aria-hidden="true" d="M0,0h0v0h0Z" pointer-events="none"/><g><g class="mark-rule role-axis-tick" pointer-events="none"><line transform="translate(25,0)" x2="0" y2="5" stroke="#888" stroke-width="1" opacity="1"/><line transform="translate(75,0)" x2="0" y2="5" stroke="#888" stroke-width="1" opacity="1"/><line transform="translate(125,0)" x2="0" y2="5" stroke="#888" stroke-width="1" opacity="1"/><line transform="translate(175,0)" x2="0" y2="5" stroke="#888" stroke-width="1" opacity="1"/><line transform="translate(225,0)" x2="0" y2="5" stroke="#888" stroke-width="1" opacity="1"/><line transform="translate(275,0)" x2="0" y2="5" stroke="#888" stroke-width="1" opacity="1"/><line transform="translate(325,0)" x2="0" y2="5" stroke="#888" stroke-width="1" opacity="1"/><line transform="translate(375,0)" x2="0" y2="5" stroke="#888" stroke-width="1" opacity="1"/><line transform="translate(425,0)" x2="0" y2="5" stroke="#888" stroke-width="1" opacity="1"/><line transform="translate(475,0)" x2="0" y2="5" stroke="#888" stroke-width="1" opacity="1"/><line transform="translate(525,0)" x2="0" y2="5" stroke="#888" stroke-width="1" opacity="1"/><line transform="translate(575,0)" x2="0" y2="5" stroke="#888" stroke-width="1" opacity="1"/></g><g class="mark-text role-axis-label" pointer-events="none"><text text-anchor="middle" transform="translate(24.5,15)" font-family="sans-serif" font-size="10px" fill="#000" opacity="1">Apr</text><text text-anchor="middle" transform="translate(74.5,15)" font-family="sans-serif" font-size="10px" fill="#000" opacity="1">Aug</text><text text-anchor="middle" transform="translate(124.5,15)" font-family="sans-serif" font-size="10px" fill="#000" opacity="1">Dec</text><text text-anchor="middle" transform="translate(174.5,15)" font-family="sans-serif" font-size="10px" fill="#000" opacity="1">Feb</text><text text-anchor="middle" transform="translate(224.5,15)" font-family="sans-serif" font-size="10px" fill="#000" opacity="1">Jan</text><text text-anchor="middle" transform="translate(274.5,15)" font-family="sans-serif" font-size="10px" fill="#000" opacity="1">Jul</text><text text-anchor="middle" transform="translate(324.5,15)" font-family="sans-serif" font-size="10px" fill="#000" opacity="1">Jun</text><text text-anchor="middle" transform="translate(374.5,15)" font-family="sans-serif" font-size="10px" fill="#000" opacity="1">Mar</text><text text-anchor="middle" transform="translate(424.5,15)" font-family="sans-serif" font-size="10px" fill="#000" opacity="1">May</text><text text-anchor="middle" transform="translate(474.5,15)" font-family="sans-serif" font-size="10px" fill="#000" opacity="1">Nov</text><text text-anchor="middle" transform="translate(524.5,15)" font-family="sans-serif" font-size="10px" fill="#000" opacity="1">Oct</text><text text-anchor="middle" transform="translate(574.5,15)" font-family="sans-serif" font-size="10px" fill="#000" opacity="1">Sep</text></g><g class="mark-rule role-axis-domain" pointer-events="none"><line transform="translate(0,0)" x2="600" y2="0" stroke="#888" stroke-width="1" opacity="1"/></g><g class="mark-text role-axis-title" pointer-events="none"><text text-anchor="middle" transform="translate(300,30)" font-family="sans-serif" font-size="11px" font-weight="bold" fill="#000" opacity="1">Month</text></g></g><path class="foreground" aria-hidden="true" d="" pointer-events="none" display="none"/></g></g><g class="mark-group role-axis" role="graphics-symbol" aria-roledescription="axis" aria-label="Y-axis titled 'Sales Amount ($)' for a linear scale with values from $0 to $100,000"><g transform="translate(0.5,0.5)"><path class="background" aria-hidden="true" d="M0,0h0v0h0Z" pointer-events="none"/><g><g class="mark-rule role-axis-tick" pointer-events="none"><line transform="translate(0,400)" x2="-5" y2="0" stroke="#888" stroke-width="1" opacity="1"/><line transform="translate(0,360)" x2="-5" y2="0" stroke="#888" stroke-width="1" opacity="1"/><line transform="translate(0,320)" x2="-5" y2="0" stroke="#888" stroke-width="1" opacity="1"/><line transform="translate(0,280)" x2="-5" y2="0" stroke="#888" stroke-width="1" opacity="1"/><line transform="translate(0,240)" x2="-5" y2="0" stroke="#888" stroke-width="1" opacity="1"/><line transform="translate(0,200)" x2="-5" y2="0" stroke="#888" stroke-width="1" opacity="1"/><line transform="translate(0,160)" x2="-5" y2="0" stroke="#888" stroke-width="1" opacity="1"/><line transform="translate(0,120)" x2="-5" y2="0" stroke="#888" stroke-width="1" opacity="1"/><line transform="translate(0,80)" x2="-5" y2="0" stroke="#888" stroke-width="1" opacity="1"/><line transform="translate(0,40)" x2="-5" y2="0" stroke="#888" stroke-width="1" opacity="1"/><line transform="translate(0,0)" x2="-5" y2="0" stroke="#888" stroke-width="1" opacity="1"/></g><g class="mark-text role-axis-label" pointer-events="none"><text text-anchor="end" transform="translate(-7,403)" font-family="sans-serif" font-size="10px" fill="#000" opacity="1">$0</text><text text-anchor="end" transform="translate(-7,363)" font-family="sans-serif" font-size="10px" fill="#000" opacity="1">$10,000</text><text text-anchor="end" transform="translate(-7,323)" font-family="sans-serif" font-size="10px" fill="#000" opacity="1">$20,000</text><text text-anchor="end" transform="translate(-7,283)" font-family="sans-serif" font-size="10px" fill="#000" opacity="1">$30,000</text><text text-anchor="end" transform="translate(-7,243)" font-family="sans-serif" font-size="10px" fill="#000" opacity="1">$40,000</text><text text-anchor="end" transform="translate(-7,203)" font-family="sans-serif" font-size="10px" fill="#000" opacity="1">$50,000</text><text text-anchor="end" transform="translate(-7,163)" font-family="sans-serif" font-size="10px" fill="#000" opacity="1">$60,000</text><text text-anchor="end" transform="translate(-7,123.00000000000001)" font-family="sans-serif" font-size="10px" fill="#000" opacity="1">$70,000</text><text text-anchor="end" transform="translate(-7,82.99999999999999)" font-family="sans-serif" font-size="10px" fill="#000" opacity="1">$80,000</text><text text-anchor="end" transform="translate(-7,42.99999999999999)" font-family="sans-serif" font-size="10px" fill="#000" opacity="1">$90,000</text><text text-anchor="end" transform="translate(-7,3)" font-family="sans-serif" font-size="10px" fill="#000" opacity="1">$100,000</text></g><g class="mark-rule role-axis-domain" pointer-events="none"><line transform="translate(0,400)" x2="0" y2="-400" stroke="#888" stroke-width="1" opacity="1"/></g><g class="mark-text role-axis-title" pointer-events="none"><text text-anchor="middle" transform="translate(-58.71484375,200) rotate(-90) translate(0,-2)" font-family="sans-serif" font-size="11px" font-weight="bold" fill="#000" opacity="1">Sales Amount ($)</text></g></g><path class="foreground" aria-hidden="true" d="" pointer-events="none" display="none"/></g></g><g class="mark-group role-axis" role="graphics-symbol" aria-roledescription="axis" aria-label="Y-axis titled 'target' for a linear scale with values from 0 to 90,000"><g transform="translate(600.5,0.5)"><path class="background" aria-hidden="true" d="M0,0h0v0h0Z" pointer-events="none"/><g><g class="mark-rule role-axis-tick" pointer-events="none"><line transform="translate(0,400)" x2="5" y2="0" stroke="#888" stroke-width="1" opacity="1"/><line transform="translate(0,356)" x2="5" y2="0" stroke="#888" stroke-width="1" opacity="1"/><line transform="translate(0,311)" x2="5" y2="0" stroke="#888" stroke-width="1" opacity="1"/><line transform="translate(0,267)" x2="5" y2="0" stroke="#888" stroke-width="1" opacity="1"/><line transform="translate(0,222)" x2="5" y2="0" stroke="#888" stroke-width="1" opacity="1"/><line transform="translate(0,178)" x2="5" y2="0" stroke="#888" stroke-width="1" opacity="1"/><line transform="translate(0,133)" x2="5" y2="0" stroke="#888" stroke-width="1" opacity="1"/><line transform="translate(0,89)" x2="5" y2="0" stroke="#888" stroke-width="1" opacity="1"/><line transform="translate(0,44)" x2="5" y2="0" stroke="#888" stroke-width="1" opacity="1"/><line transform="translate(0,0)" x2="5" y2="0" stroke="#888" stroke-width="1" opacity="1"/></g><g class="mark-text role-axis-label" pointer-events="none"><text text-anchor="start" transform="translate(7,403)" font-family="sans-serif" font-size="10px" fill="#000" opacity="1">0</text><text text-anchor="start" transform="translate(7,358.55555555555554)" font-family="sans-serif" font-size="10px" fill="#000" opacity="1">10,000</text><text text-anchor="start" transform="translate(7,314.11111111111114)" font-family="sans-serif" font-size="10px" fill="#000" opacity="1">20,000</text><text text-anchor="start" transform="translate(7,269.6666666666667)" font-family="sans-serif" font-size="10px" fill="#000" opacity="1">30,000</text><text text-anchor="start" transform="translate(7,225.22222222222223)" font-family="sans-serif" font-size="10px" fill="#000" opacity="1">40,000</text><text text-anchor="start" transform="translate(7,180.77777777777777)" font-family="sans-serif" font-size="10px" fill="#000" opacity="1">50,000</text><text text-anchor="start" transform="translate(7,136.33333333333334)" font-family="sans-serif" font-size="10px" fill="#000" opacity="1">60,000</text><text text-anchor="start" transform="translate(7,91.88888888888889)" font-family="sans-serif" font-size="10px" fill="#000" opacity="1">70,000</text><text text-anchor="start" transform="translate(7,47.444444444444464)" font-family="sans-serif" font-size="10px" fill="#000" opacity="1">80,000</text><text text-anchor="start" transform="translate(7,3)" font-family="sans-serif" font-size="10px" fill="#000" opacity="1">90,000</text></g><g class="mark-rule role-axis-domain" pointer-events="none"><line transform="translate(0,400)" x2="0" y2="-400" stroke="#888" stroke-width="1" opacity="1"/></g><g class="mark-text role-axis-title" pointer-events="none"><text text-anchor="middle" transform="translate(45.990234375,200) rotate(90) translate(0,-2)" font-family="sans-serif" font-size="11px" font-weight="bold" fill="#000" opacity="1">target</text></g></g><path class="foreground" aria-hidden="true" d="" pointer-events="none" display="none"/></g></g><g class="mark-group role-axis" role="graphics-symbol" aria-roledescription="axis" aria-label="Y-axis titled 'Orders (Scaled)' for a linear scale with values from 0 to 100,000"><g transform="translate(600.5,0.5)"><path class="background" aria-hidden="true" d="M0,0h0v0h0Z" pointer-events="none"/><g><g class="mark-rule role-axis-tick" pointer-events="none"><line transform="translate(0,400)" x2="5" y2="0" stroke="#888" stroke-width="1" opacity="1"/><line transform="translate(0,360)" x2="5" y2="0" stroke="#888" stroke-width="1" opacity="1"/><line transform="translate(0,320)" x2="5" y2="0" stroke="#888" stroke-width="1" opacity="1"/><line transform="translate(0,280)" x2="5" y2="0" stroke="#888" stroke-width="1" opacity="1"/><line transform="translate(0,240)" x2="5" y2="0" stroke="#888" stroke-width="1" opacity="1"/><line transform="translate(0,200)" x2="5" y2="0" stroke="#888" stroke-width="1" opacity="1"/><line transform="translate(0,160)" x2="5" y2="0" stroke="#888" stroke-width="1" opacity="1"/><line transform="translate(0,120)" x2="5" y2="0" stroke="#888" stroke-width="1" opacity="1"/><line transform="translate(0,80)" x2="5" y2="0" stroke="#888" stroke-width="1" opacity="1"/><line transform="translate(0,40)" x2="5" y2="0" stroke="#888" stroke-width="1" opacity="1"/><line transform="translate(0,0)" x2="5" y2="0" stroke="#888" stroke-width="1" opacity="1"/></g><g class="mark-text role-axis-label" pointer-events="none"><text text-anchor="start" transform="translate(7,403)" font-family="sans-serif" font-size="10px" fill="#000" opacity="1">0</text><text text-anchor="start" transform="translate(7,363)" font-family="sans-serif" font-size="10px" fill="#000" opacity="1">10,000</text><text text-anchor="start" transform="translate(7,323)" font-family="sans-serif" font-size="10px" fill="#000" opacity="1">20,000</text><text text-anchor="start" transform="translate(7,283)" font-family="sans-serif" font-size="10px" fill="#000" opacity="1">30,000</text><text text-anchor="start" transform="translate(7,243)" font-family="sans-serif" font-size="10px" fill="#000" opacity="1">40,000</text><text text-anchor="start" transform="translate(7,203)" font-family="sans-serif" font-size="10px" fill="#000" opacity="1">50,000</text><text text-anchor="start" transform="translate(7,163)" font-family="sans-serif" font-size="10px" fill="#000" opacity="1">60,000</text><text text-anchor="start" transform="translate(7,123.00000000000001)" font-family="sans-serif" font-size="10px" fill="#000" opacity="1">70,000</text><text text-anchor="start" transform="translate(7,82.99999999999999)" font-family="sans-serif" font-size="10px" fill="#000" opacity="1">80,000</text><text text-anchor="start" transform="translate(7,42.99999999999999)" font-family="sans-serif" font-size="10px" fill="#000" opacity="1">90,000</text><text text-anchor="start" transform="translate(7,3)" font-family="sans-serif" font-size="10px" fill="#000" opacity="1">100,000</text></g><g class="mark-rule role-axis-domain" pointer-events="none"><line transform="translate(0,400)" x2="0" y2="-400" stroke="#888" stroke-width="1" opacity="1"/></g><g class="mark-text role-axis-title" pointer-events="none"><text text-anchor="middle" transform="translate(52.3525390625,200) rotate(90) translate(0,-2)" font-family="sans-serif" font-size="11px" font-weight="bold" fill="#000" opacity="1">Orders (Scaled)</text></g></g><path class="foreground" aria-hidden="true" d="" pointer-events="none" display="none"/></g></g><g class="mark-rect role-mark layer_0_marks" role="graphics-object" aria-roledescription="rect mark container"><path aria-label="Month: Jan; Sales Amount ($): $45,000; Sales: $45,000; Target: $50,000; Orders: 180" role="graphics-symbol" aria-roledescription="bar" d="M202.5,220.00000000000003h45v179.99999999999997h-45Z" fill="#4c78a8" opacity="0.7"/><path aria-label="Month: Feb; Sales Amount ($): $52,000; Sales: $52,000; Target: $55,000; Orders: 210" role="graphics-symbol" aria-roledescription="bar" d="M152.5,192h45v208h-45Z" fill="#4c78a8" opacity="0.7"/><path aria-label="Month: Mar; Sales Amount ($): $48,000; Sales: $48,000; Target: $52,000; Orders: 195" role="graphics-symbol" aria-roledescription="bar" d="M352.5,208h45v192h-45Z" fill="#4c78a8" opacity="0.7"/><path aria-label="Month: Apr; Sales Amount ($): $61,000; Sales: $61,000; Target: $60,000; Orders: 245" role="graphics-symbol" aria-roledescription="bar" d="M2.5,156h45v244h-45Z" fill="#4c78a8" opacity="0.7"/><path aria-label="Month: May; Sales Amount ($): $58,000; Sales: $58,000; Target: $62,000; Orders: 230" role="graphics-symbol" aria-roledescription="bar" d="M402.5,168.00000000000003h45v231.99999999999997h-45Z" fill="#4c78a8" opacity="0.7"/><path aria-label="Month: Jun; Sales Amount ($): $67,000; Sales: $67,000; Target: $65,000; Orders: 270" role="graphics-symbol" aria-roledescription="bar" d="M302.5,131.99999999999997h45v268h-45Z" fill="#4c78a8" opacity="0.7"/><path aria-label="Month: Jul; Sales Amount ($): $72,000; Sales: $72,000; Target: $70,000; Orders: 290" role="graphics-symbol" aria-roledescription="bar" d="M252.5,112.00000000000001h45v288h-45Z" fill="#4c78a8" opacity="0.7"/><path aria-label="Month: Aug; Sales Amount ($): $69,000; Sales: $69,000; Target: $68,000; Orders: 275" role="graphics-symbol" aria-roledescription="bar" d="M52.5,124.00000000000003h45v276h-45Z" fill="#4c78a8" opacity="0.7"/><path aria-label="Month: Sep; Sales Amount ($): $74,000; Sales: $74,000; Target: $72,000; Orders: 295" role="graphics-symbol" aria-roledescription="bar" d="M552.5,104h45v296h-45Z" fill="#4c78a8" opacity="0.7"/><path aria-label="Month: Oct; Sales Amount ($): $78,000; Sales: $78,000; Target: $75,000; Orders: 310" role="graphics-symbol" aria-roledescription="bar" d="M502.5,87.99999999999999h45v312h-45Z" fill="#4c78a8" opacity="0.7"/><path aria-label="Month: Nov; Sales Amount ($): $85,000; Sales: $85,000; Target: $80,000; Orders: 340" role="graphics-symbol" aria-roledescription="bar" d="M452.5,60.00000000000001h45v340h-45Z" fill="#4c78a8" opacity="0.7"/><path aria-label="Month: Dec; Sales Amount ($): $92,000; Sales: $92,000; Target: $85,000; Orders: 365" role="graphics-symbol" aria-roledescription="bar" d="M102.5,31.999999999999986h45v368h-45Z" fill="#4c78a8" opacity="0.7"/></g><g class="mark-line role-mark layer_1_layer_0_marks" role="graphics-object" aria-roledescription="line mark container"><path aria-label="month: Apr; target: 60000; Month: Apr; Target: $60,000; Actual Sales: $61,000" role="graphics-symbol" aria-roledescription="line mark" d="M25,133.333L75,97.778L125,22.222L175,155.556L225,177.778L275,88.889L325,111.111L375,168.889L425,124.444L475,44.444L525,66.667L575,80" stroke="#f58518" stroke-width="3"/></g><g class="mark-symbol role-mark layer_1_layer_1_marks" role="graphics-object" aria-roledescription="symbol mark container"><path aria-label="month: Jan; target: 50000; Month: Jan; Target: $50,000; Actual Sales: $45,000" role="graphics-symbol" aria-roledescription="point" transform="translate(225,177.77777777777777)" d="M2.739,0A2.739,2.739,0,1,1,-2.739,0A2.739,2.739,0,1,1,2.739,0" fill="#4c78a8" stroke-width="2" opacity="1"/><path aria-label="month: Feb; target: 55000; Month: Feb; Target: $55,000; Actual Sales: $52,000" role="graphics-symbol" aria-roledescription="point" transform="translate(175,155.55555555555554)" d="M2.739,0A2.739,2.739,0,1,1,-2.739,0A2.739,2.739,0,1,1,2.739,0" fill="#4c78a8" stroke-width="2" opacity="1"/><path aria-label="month: Mar; target: 52000; Month: Mar; Target: $52,000; Actual Sales: $48,000" role="graphics-symbol" aria-roledescription="point" transform="translate(375,168.8888888888889)" d="M2.739,0A2.739,2.739,0,1,1,-2.739,0A2.739,2.739,0,1,1,2.739,0" fill="#4c78a8" stroke-width="2" opacity="1"/><path aria-label="month: Apr; target: 60000; Month: Apr; Target: $60,000; Actual Sales: $61,000" role="graphics-symbol" aria-roledescription="point" transform="translate(25,133.33333333333334)" d="M2.739,0A2.739,2.739,0,1,1,-2.739,0A2.739,2.739,0,1,1,2.739,0" fill="#4c78a8" stroke-width="2" opacity="1"/><path aria-label="month: May; target: 62000; Month: May; Target: $62,000; Actual Sales: $58,000" role="graphics-symbol" aria-roledescription="point" transform="translate(425,124.44444444444444)" d="M2.739,0A2.739,2.739,0,1,1,-2.739,0A2.739,2.739,0,1,1,2.739,0" fill="#4c78a8" stroke-width="2" opacity="1"/><path aria-label="month: Jun; target: 65000; Month: Jun; Target: $65,000; Actual Sales: $67,000" role="graphics-symbol" aria-roledescription="point" transform="translate(325,111.11111111111111)" d="M2.739,0A2.739,2.739,0,1,1,-2.739,0A2.739,2.739,0,1,1,2.739,0" fill="#4c78a8" stroke-width="2" opacity="1"/><path aria-label="month: Jul; target: 70000; Month: Jul; Target: $70,000; Actual Sales: $72,000" role="graphics-symbol" aria-roledescription="point" transform="translate(275,88.88888888888889)" d="M2.739,0A2.739,2.739,0,1,1,-2.739,0A2.739,2.739,0,1,1,2.739,0" fill="#4c78a8" stroke-width="2" opacity="1"/><path aria-label="month: Aug; target: 68000; Month: Aug; Target: $68,000; Actual Sales: $69,000" role="graphics-symbol" aria-roledescription="point" transform="translate(75,97.77777777777779)" d="M2.739,0A2.739,2.739,0,1,1,-2.739,0A2.739,2.739,0,1,1,2.739,0" fill="#4c78a8" stroke-width="2" opacity="1"/><path aria-label="month: Sep; target: 72000; Month: Sep; Target: $72,000; Actual Sales: $74,000" role="graphics-symbol" aria-roledescription="point" transform="translate(575,79.99999999999999)" d="M2.739,0A2.739,2.739,0,1,1,-2.739,0A2.739,2.739,0,1,1,2.739,0" fill="#4c78a8" stroke-width="2" opacity="1"/><path aria-label="month: Oct; target: 75000; Month: Oct; Target: $75,000; Actual Sales: $78,000" role="graphics-symbol" aria-roledescription="point" transform="translate(525,66.66666666666666)" d="M2.739,0A2.739,2.739,0,1,1,-2.739,0A2.739,2.739,0,1,1,2.739,0" fill="#4c78a8" stroke-width="2" opacity="1"/><path aria-label="month: Nov; target: 80000; Month: Nov; Target: $80,000; Actual Sales: $85,000" role="graphics-symbol" aria-roledescription="point" transform="translate(475,44.444444444444464)" d="M2.739,0A2.739,2.739,0,1,1,-2.739,0A2.739,2.739,0,1,1,2.739,0" fill="#4c78a8" stroke-width="2" opacity="1"/><path aria-label="month: Dec; target: 85000; Month: Dec; Target: $85,000; Actual Sales: $92,000" role="graphics-symbol" aria-roledescription="point" transform="translate(125,22.222222222222232)" d="M2.739,0A2.739,2.739,0,1,1,-2.739,0A2.739,2.739,0,1,1,2.739,0" fill="#4c78a8" stroke-width="2" opacity="1"/></g><g class="mark-line role-mark layer_2_layer_0_marks" role="graphics-object" aria-roledescription="line mark container"><path aria-label="month: Apr; Orders (Scaled): 61250; Month: Apr; Number of Orders: 245; Sales: $61,000" role="graphics-symbol" aria-roledescription="line mark" d="M25,155L75,125L125,35L175,190L225,220L275,110L325,130L375,205L425,170L475,60L525,90L575,105" stroke="#e45756" stroke-width="2" stroke-dasharray="5,5"/></g><g class="mark-symbol role-mark layer_2_layer_1_marks" role="graphics-object" aria-roledescription="symbol mark container"><path aria-label="month: Jan; Orders (Scaled): 45000; Month: Jan; Number of Orders: 180; Sales: $45,000" role="graphics-symbol" aria-roledescription="point" transform="translate(225,220.00000000000003)" d="M3.873,0A3.873,3.873,0,1,1,-3.873,0A3.873,3.873,0,1,1,3.873,0" fill="#4c78a8" stroke-width="2" opacity="1"/><path aria-label="month: Feb; Orders (Scaled): 52500; Month: Feb; Number of Orders: 210; Sales: $52,000" role="graphics-symbol" aria-roledescription="point" transform="translate(175,190)" d="M3.873,0A3.873,3.873,0,1,1,-3.873,0A3.873,3.873,0,1,1,3.873,0" fill="#4c78a8" stroke-width="2" opacity="1"/><path aria-label="month: Mar; Orders (Scaled): 48750; Month: Mar; Number of Orders: 195; Sales: $48,000" role="graphics-symbol" aria-roledescription="point" transform="translate(375,204.99999999999997)" d="M3.873,0A3.873,3.873,0,1,1,-3.873,0A3.873,3.873,0,1,1,3.873,0" fill="#4c78a8" stroke-width="2" opacity="1"/><path aria-label="month: Apr; Orders (Scaled): 61250; Month: Apr; Number of Orders: 245; Sales: $61,000" role="graphics-symbol" aria-roledescription="point" transform="translate(25,154.99999999999997)" d="M3.873,0A3.873,3.873,0,1,1,-3.873,0A3.873,3.873,0,1,1,3.873,0" fill="#4c78a8" stroke-width="2" opacity="1"/><path aria-label="month: May; Orders (Scaled): 57500; Month: May; Number of Orders: 230; Sales: $58,000" role="graphics-symbol" aria-roledescription="point" transform="translate(425,170.00000000000003)" d="M3.873,0A3.873,3.873,0,1,1,-3.873,0A3.873,3.873,0,1,1,3.873,0" fill="#4c78a8" stroke-width="2" opacity="1"/><path aria-label="month: Jun; Orders (Scaled): 67500; Month: Jun; Number of Orders: 270; Sales: $67,000" role="graphics-symbol" aria-roledescription="point" transform="translate(325,129.99999999999997)" d="M3.873,0A3.873,3.873,0,1,1,-3.873,0A3.873,3.873,0,1,1,3.873,0" fill="#4c78a8" stroke-width="2" opacity="1"/><path aria-label="month: Jul; Orders (Scaled): 72500; Month: Jul; Number of Orders: 290; Sales: $72,000" role="graphics-symbol" aria-roledescription="point" transform="translate(275,110.00000000000001)" d="M3.873,0A3.873,3.873,0,1,1,-3.873,0A3.873,3.873,0,1,1,3.873,0" fill="#4c78a8" stroke-width="2" opacity="1"/><path aria-label="month: Aug; Orders (Scaled): 68750; Month: Aug; Number of Orders: 275; Sales: $69,000" role="graphics-symbol" aria-roledescription="point" transform="translate(75,125)" d="M3.873,0A3.873,3.873,0,1,1,-3.873,0A3.873,3.873,0,1,1,3.873,0" fill="#4c78a8" stroke-width="2" opacity="1"/><path aria-label="month: Sep; Orders (Scaled): 73750; Month: Sep; Number of Orders: 295; Sales: $74,000" role="graphics-symbol" aria-roledescription="point" transform="translate(575,104.99999999999999)" d="M3.873,0A3.873,3.873,0,1,1,-3.873,0A3.873,3.873,0,1,1,3.873,0" fill="#4c78a8" stroke-width="2" opacity="1"/><path aria-label="month: Oct; Orders (Scaled): 77500; Month: Oct; Number of Orders: 310; Sales: $78,000" role="graphics-symbol" aria-roledescription="point" transform="translate(525,89.99999999999999)" d="M3.873,0A3.873,3.873,0,1,1,-3.873,0A3.873,3.873,0,1,1,3.873,0" fill="#4c78a8" stroke-width="2" opacity="1"/><path aria-label="month: Nov; Orders (Scaled): 85000; Month: Nov; Number of Orders: 340; Sales: $85,000" role="graphics-symbol" aria-roledescription="point" transform="translate(475,60.00000000000001)" d="M3.873,0A3.873,3.873,0,1,1,-3.873,0A3.873,3.873,0,1,1,3.873,0" fill="#4c78a8" stroke-width="2" opacity="1"/><path aria-label="month: Dec; Orders (Scaled): 91250; Month: Dec; Number of Orders: 365; Sales: $92,000" role="graphics-symbol" aria-roledescription="point" transform="translate(125,35.00000000000001)" d="M3.873,0A3.873,3.873,0,1,1,-3.873,0A3.873,3.873,0,1,1,3.873,0" fill="#4c78a8" stroke-width="2" opacity="1"/></g><g class="mark-group role-title"><g transform="translate(300,-22)"><path class="background" aria-hidden="true" d="M0,0h0v0h0Z" pointer-events="none"/><g><g class="mark-text role-title-text" role="graphics-symbol" aria-roledescription="title" aria-label="Title text 'Monthly Sales Metrics Dashboard'" pointer-events="none"><text text-anchor="middle" transform="translate(0,10)" font-family="sans-serif" font-size="13px" font-weight="bold" fill="#000" opacity="1">Monthly Sales Metrics Dashboard</text></g></g><path class="foreground" aria-hidden="true" d="" pointer-events="none" display="none"/></g></g></g><path class="foreground" aria-hidden="true" d="" display="none"/></g></g></g></svg>